<?xml version="1.0" encoding="UTF-8" standalone="no"?>
<!-- Created with Inkscape (http://www.inkscape.org/) -->

<svg
   width="102mm"
   height="102mm"
   viewBox="0 0 102 102"
   version="1.1"
   id="svg5"
   inkscape:version="1.1 (c68e22c387, 2021-05-23)"
   sodipodi:docname="unalogo.svg"
   inkscape:export-filename="C:\Users\cesar\Pictures\logouna.webp"
   inkscape:export-xdpi="124.7544"
   inkscape:export-ydpi="124.7544"
   xmlns:inkscape="http://www.inkscape.org/namespaces/inkscape"
   xmlns:sodipodi="http://sodipodi.sourceforge.net/DTD/sodipodi-0.dtd"
   xmlns="http://www.w3.org/2000/svg"
   xmlns:svg="http://www.w3.org/2000/svg">
  <sodipodi:namedview
     id="namedview7"
     pagecolor="#505050"
     bordercolor="#ffffff"
     borderopacity="1"
     inkscape:pageshadow="0"
     inkscape:pageopacity="0"
     inkscape:pagecheckerboard="1"
     inkscape:document-units="mm"
     showgrid="false"
     showguides="false"
     inkscape:zoom="0.125"
     inkscape:cx="-1492"
     inkscape:cy="-476"
     inkscape:window-width="1920"
     inkscape:window-height="1017"
     inkscape:window-x="-8"
     inkscape:window-y="-8"
     inkscape:window-maximized="1"
     inkscape:current-layer="layer2"
     width="102mm" />
  <defs
     id="defs2" />
  <g
     inkscape:groupmode="layer"
     id="layer2"
     inkscape:label="Capa 2"
     style="display:inline">
    <ellipse
       style="display:inline;fill:none;fill-opacity:1;stroke:#ff8d00;stroke-width:5.55208;stroke-miterlimit:4;stroke-dasharray:none;stroke-opacity:1"
       id="path939-3"
       cx="50.961033"
       cy="50.945286"
       inkscape:export-filename="C:\Users\cesar\Pictures\unaIcono2.png"
       inkscape:export-xdpi="14.97053"
       inkscape:export-ydpi="14.97053"
       rx="48.127464"
       ry="48.108627" />
    <g
       id="g832"
       style="fill:#ff8d00;fill-opacity:1;stroke:#ff8d00;stroke-width:0;stroke-miterlimit:4;stroke-dasharray:none;stroke-opacity:1">
      <path
         id="path1932"
         style="fill:#ff8d00;fill-opacity:1;stroke:#ff8d00;stroke-width:0;stroke-linecap:butt;stroke-linejoin:miter;stroke-miterlimit:4;stroke-dasharray:none;stroke-opacity:1"
         d="m 291.26953,126.29883 c -10.43509,0.10711 -20.9772,3.30517 -29.39844,9.17187 -11.71659,8.16241 -17.53136,20.2414 -15.32031,31.14649 l 10.9082,59.0664 26.03516,-4.80273 -3.30664,-17.87891 30.91797,-5.73437 3.39062,17.89453 25.57032,-4.71875 -10.89453,-59.27148 c -2.01331,-11.14384 -11.90948,-20.24632 -25.83594,-23.55274 -3.91683,-0.92993 -7.98311,-1.36223 -12.06641,-1.32031 z m -2.35351,25.0332 c 1.41565,-0.0194 2.83569,0.16822 4.20312,0.57422 4.37584,1.29913 7.5436,4.63396 8.20898,8.58203 l 2.74024,13.88867 -25.80078,4.75977 -2.55664,-13.85156 c -0.76967,-3.8565 0.94333,-8.1165 4.53125,-10.92969 2.46673,-1.93411 5.55939,-2.9808 8.67383,-3.02344 z"
         transform="scale(0.26458333)" />
      <path
         style="fill:#ff8d00;fill-opacity:1;stroke:#ff8d00;stroke-width:0;stroke-linecap:butt;stroke-linejoin:miter;stroke-miterlimit:4;stroke-dasharray:none;stroke-opacity:1"
         d="m 36.53232,56.244152 c 0.594177,3.121462 -0.895077,6.549631 -3.917936,8.802799 -3.022873,2.253158 -7.116179,2.986072 -10.727021,1.920718 -3.610847,-1.065334 -6.186003,-3.765729 -6.712095,-6.841361 l -2.804893,-15.164853 6.888287,-1.270854 2.692575,14.585279 c 0.617509,1.790048 2.496659,2.898322 4.412541,2.555015 1.915881,-0.343297 3.292436,-2.036478 3.258266,-3.950749 L 26.941175,42.27321 33.767803,41.013726 Z"
         id="path2654"
         sodipodi:nodetypes="cssccccscccc" />
      <path
         style="fill:#ff8d00;fill-opacity:1;stroke:#ff8d00;stroke-width:0;stroke-linecap:butt;stroke-linejoin:miter;stroke-miterlimit:4;stroke-dasharray:none;stroke-opacity:1"
         d="m 38.154391,40.208702 4.466306,24.208082 6.888281,-1.270861 -1.986438,-10.7668 16.816114,8.159112 -4.489966,-24.336332 -6.888281,1.270864 1.971151,10.6839 -16.777167,-7.947965"
         id="path2988"
         sodipodi:nodetypes="ccccccccc" />
      <text
         xml:space="preserve"
         style="font-style:normal;font-variant:normal;font-weight:600;font-stretch:normal;font-size:16.9333px;line-height:1.25;font-family:Inconsolata;-inkscape-font-specification:'Inconsolata Semi-Bold';fill:#ff8d00;fill-opacity:1;stroke:#ff8d00;stroke-width:0;stroke-miterlimit:4;stroke-dasharray:none;stroke-opacity:1"
         x="29.312073"
         y="83.687874"
         id="text3621"
         transform="rotate(-10.605658)"><tspan
           sodipodi:role="line"
           id="tspan3619"
           style="font-style:normal;font-variant:normal;font-weight:600;font-stretch:normal;font-size:16.9333px;font-family:Inconsolata;-inkscape-font-specification:'Inconsolata Semi-Bold';fill:#ff8d00;fill-opacity:1;stroke:#ff8d00;stroke-width:0;stroke-miterlimit:4;stroke-dasharray:none;stroke-opacity:1"
           x="29.312073"
           y="83.687874">WEB</tspan></text>
    </g>
  </g>
</svg>
